<?xml version="1.0" encoding="UTF-8" standalone="no"?>
<svg width="264.583mm" height="141.111mm"
 xmlns="http://www.w3.org/2000/svg" xmlns:xlink="http://www.w3.org/1999/xlink"  version="1.2" baseProfile="tiny">
<title>Qt Svg Document</title>
<desc>Generated with Qt</desc>
<defs>
</defs>
<g fill="none" stroke="black" stroke-width="1" fill-rule="evenodd" stroke-linecap="square" stroke-linejoin="bevel" >

<g fill="none" stroke="#000000" stroke-opacity="1" stroke-width="1" stroke-linecap="square" stroke-linejoin="bevel" transform="matrix(0.75,0,0,0.75,0,0)"
font-family="Sans" font-size="10" font-weight="400" font-style="normal" 
>
</g>

<g fill="#ffffff" fill-opacity="1" stroke="none" transform="matrix(0.75,0,0,0.75,0,0)"
font-family="Sans" font-size="10" font-weight="400" font-style="normal" 
>
<path vector-effect="non-scaling-stroke" fill-rule="evenodd" d="M0,0 L750,0 L750,400 L0,400 L0,0"/>
</g>

<g fill="none" stroke="#000000" stroke-opacity="1" stroke-width="1" stroke-linecap="square" stroke-linejoin="bevel" transform="matrix(0.75,0,0,0.75,0,0)"
font-family="Sans" font-size="10" font-weight="400" font-style="normal" 
>
<path vector-effect="non-scaling-stroke" fill-rule="evenodd" d="M5,5 L745,5 L745,345 L5,345 L5,5"/>
</g>

<g fill="#ffffff" fill-opacity="1" stroke="#000000" stroke-opacity="1" stroke-width="1" stroke-linecap="square" stroke-linejoin="bevel" transform="matrix(0.75,0,0,0.75,0,0)"
font-family="Sans Serif" font-size="9" font-weight="400" font-style="normal" 
>
<path vector-effect="non-scaling-stroke" fill-rule="evenodd" d="M5,5 L25,5 L25,25 L5,25 L5,5"/>
<path vector-effect="non-scaling-stroke" fill-rule="evenodd" d="M25,5 L85,5 L85,25 L25,25 L25,5"/>
<text fill="#000000" fill-opacity="1" stroke="none" xml:space="preserve" x="51.1875" y="19" font-family="Sans Serif" font-size="9" font-weight="400" font-style="normal" 
 >1</text>
<path vector-effect="non-scaling-stroke" fill-rule="evenodd" d="M85,5 L145,5 L145,25 L85,25 L85,5"/>
<text fill="#000000" fill-opacity="1" stroke="none" xml:space="preserve" x="111.188" y="19" font-family="Sans Serif" font-size="9" font-weight="400" font-style="normal" 
 >2</text>
<path vector-effect="non-scaling-stroke" fill-rule="evenodd" d="M145,5 L205,5 L205,25 L145,25 L145,5"/>
<text fill="#000000" fill-opacity="1" stroke="none" xml:space="preserve" x="171.188" y="19" font-family="Sans Serif" font-size="9" font-weight="400" font-style="normal" 
 >3</text>
<path vector-effect="non-scaling-stroke" fill-rule="evenodd" d="M205,5 L265,5 L265,25 L205,25 L205,5"/>
<text fill="#000000" fill-opacity="1" stroke="none" xml:space="preserve" x="231.188" y="19" font-family="Sans Serif" font-size="9" font-weight="400" font-style="normal" 
 >4</text>
<path vector-effect="non-scaling-stroke" fill-rule="evenodd" d="M265,5 L325,5 L325,25 L265,25 L265,5"/>
<text fill="#000000" fill-opacity="1" stroke="none" xml:space="preserve" x="291.188" y="19" font-family="Sans Serif" font-size="9" font-weight="400" font-style="normal" 
 >5</text>
<path vector-effect="non-scaling-stroke" fill-rule="evenodd" d="M325,5 L385,5 L385,25 L325,25 L325,5"/>
<text fill="#000000" fill-opacity="1" stroke="none" xml:space="preserve" x="351.188" y="19" font-family="Sans Serif" font-size="9" font-weight="400" font-style="normal" 
 >6</text>
<path vector-effect="non-scaling-stroke" fill-rule="evenodd" d="M385,5 L445,5 L445,25 L385,25 L385,5"/>
<text fill="#000000" fill-opacity="1" stroke="none" xml:space="preserve" x="411.188" y="19" font-family="Sans Serif" font-size="9" font-weight="400" font-style="normal" 
 >7</text>
<path vector-effect="non-scaling-stroke" fill-rule="evenodd" d="M445,5 L505,5 L505,25 L445,25 L445,5"/>
<text fill="#000000" fill-opacity="1" stroke="none" xml:space="preserve" x="471.188" y="19" font-family="Sans Serif" font-size="9" font-weight="400" font-style="normal" 
 >8</text>
<path vector-effect="non-scaling-stroke" fill-rule="evenodd" d="M505,5 L565,5 L565,25 L505,25 L505,5"/>
<text fill="#000000" fill-opacity="1" stroke="none" xml:space="preserve" x="531.188" y="19" font-family="Sans Serif" font-size="9" font-weight="400" font-style="normal" 
 >9</text>
<path vector-effect="non-scaling-stroke" fill-rule="evenodd" d="M565,5 L625,5 L625,25 L565,25 L565,5"/>
<text fill="#000000" fill-opacity="1" stroke="none" xml:space="preserve" x="587.375" y="19" font-family="Sans Serif" font-size="9" font-weight="400" font-style="normal" 
 >10</text>
<path vector-effect="non-scaling-stroke" fill-rule="evenodd" d="M625,5 L685,5 L685,25 L625,25 L625,5"/>
<text fill="#000000" fill-opacity="1" stroke="none" xml:space="preserve" x="647.375" y="19" font-family="Sans Serif" font-size="9" font-weight="400" font-style="normal" 
 >11</text>
<path vector-effect="non-scaling-stroke" fill-rule="evenodd" d="M685,5 L745,5 L745,25 L685,25 L685,5"/>
<text fill="#000000" fill-opacity="1" stroke="none" xml:space="preserve" x="707.375" y="19" font-family="Sans Serif" font-size="9" font-weight="400" font-style="normal" 
 >12</text>
<path vector-effect="non-scaling-stroke" fill-rule="evenodd" d="M5,25 L25,25 L25,105 L5,105 L5,25"/>
<text fill="#000000" fill-opacity="1" stroke="none" xml:space="preserve" x="10.8906" y="69" font-family="Sans Serif" font-size="9" font-weight="400" font-style="normal" 
 >A</text>
<path vector-effect="non-scaling-stroke" fill-rule="evenodd" d="M5,105 L25,105 L25,185 L5,185 L5,105"/>
<text fill="#000000" fill-opacity="1" stroke="none" xml:space="preserve" x="10.8906" y="149" font-family="Sans Serif" font-size="9" font-weight="400" font-style="normal" 
 >B</text>
<path vector-effect="non-scaling-stroke" fill-rule="evenodd" d="M5,185 L25,185 L25,265 L5,265 L5,185"/>
<text fill="#000000" fill-opacity="1" stroke="none" xml:space="preserve" x="10.8125" y="229" font-family="Sans Serif" font-size="9" font-weight="400" font-style="normal" 
 >C</text>
<path vector-effect="non-scaling-stroke" fill-rule="evenodd" d="M5,265 L25,265 L25,345 L5,345 L5,265"/>
<text fill="#000000" fill-opacity="1" stroke="none" xml:space="preserve" x="10.375" y="309" font-family="Sans Serif" font-size="9" font-weight="400" font-style="normal" 
 >D</text>
</g>

<g fill="#ffffff" fill-opacity="1" stroke="#000000" stroke-opacity="1" stroke-width="1" stroke-linecap="square" stroke-linejoin="bevel" transform="matrix(0.75,0,0,0.75,0,0)"
font-family="Sans Serif" font-size="9" font-weight="400" font-style="normal" 
>
<path vector-effect="non-scaling-stroke" fill-rule="evenodd" d="M5,345 L745,345 L745,395 L5,395 L5,345"/>
<path vector-effect="non-scaling-stroke" fill-rule="evenodd" d="M5,345 L169.444,345 L169.444,370 L5,370 L5,345"/>
</g>

<g fill="#ffffff" fill-opacity="1" stroke="#000000" stroke-opacity="1" stroke-width="1" stroke-linecap="square" stroke-linejoin="bevel" transform="matrix(0.75,0,0,0.75,0,0)"
font-family="Sans Serif" font-size="9" font-weight="400" font-style="normal" 
>
<text fill="#000000" fill-opacity="1" stroke="none" xml:space="preserve" x="5" y="362" font-family="Sans Serif" font-size="9" font-weight="400" font-style="normal" 
 >Autor: Naranjo Manuel Francisco</text>
</g>

<g fill="#ffffff" fill-opacity="1" stroke="#000000" stroke-opacity="1" stroke-width="1" stroke-linecap="square" stroke-linejoin="bevel" transform="matrix(0.75,0,0,0.75,0,0)"
font-family="Sans Serif" font-size="9" font-weight="400" font-style="normal" 
>
</g>

<g fill="#ffffff" fill-opacity="1" stroke="#000000" stroke-opacity="1" stroke-width="1" stroke-linecap="square" stroke-linejoin="bevel" transform="matrix(0.75,0,0,0.75,0,0)"
font-family="Sans Serif" font-size="9" font-weight="400" font-style="normal" 
>
</g>

<g fill="#ffffff" fill-opacity="1" stroke="#000000" stroke-opacity="1" stroke-width="1" stroke-linecap="square" stroke-linejoin="bevel" transform="matrix(0.75,0,0,0.75,0,0)"
font-family="Sans Serif" font-size="9" font-weight="400" font-style="normal" 
>
<path vector-effect="non-scaling-stroke" fill-rule="evenodd" d="M5,370 L169.444,370 L169.444,395 L5,395 L5,370"/>
<text fill="#000000" fill-opacity="1" stroke="none" xml:space="preserve" x="5" y="387" font-family="Sans Serif" font-size="9" font-weight="400" font-style="normal" 
 >Fecha: 24/10/2013</text>
<path vector-effect="non-scaling-stroke" fill-rule="evenodd" d="M169.444,345 L580.556,345 L580.556,395 L169.444,395 L169.444,345"/>
<text fill="#000000" fill-opacity="1" stroke="none" xml:space="preserve" x="327.188" y="374" font-family="Sans Serif" font-size="9" font-weight="400" font-style="normal" 
 >Contactores 2/2</text>
<path vector-effect="non-scaling-stroke" fill-rule="evenodd" d="M580.556,345 L745,345 L745,370 L580.556,370 L580.556,345"/>
<text fill="#000000" fill-opacity="1" stroke="none" xml:space="preserve" x="580.547" y="362" font-family="Sans Serif" font-size="9" font-weight="400" font-style="normal" 
 >Archivo: 3N - Hass - MN1</text>
<path vector-effect="non-scaling-stroke" fill-rule="evenodd" d="M580.556,370 L745,370 L745,395 L580.556,395 L580.556,370"/>
<text fill="#000000" fill-opacity="1" stroke="none" xml:space="preserve" x="580.547" y="387" font-family="Sans Serif" font-size="9" font-weight="400" font-style="normal" 
 >Folio: 3/12</text>
</g>

<g fill="none" stroke="#000000" stroke-opacity="1" stroke-width="1" stroke-linecap="square" stroke-linejoin="bevel" transform="matrix(0.75,0,0,0.75,30,22.5)"
font-family="Sans" font-size="10" font-weight="400" font-style="normal" 
>
<text fill="#000000" fill-opacity="1" stroke="none" xml:space="preserve" x="4" y="16" font-family="Sans Serif" font-size="9" font-weight="400" font-style="normal" 
 >T1</text>
</g>

<g fill="none" stroke="#000000" stroke-opacity="1" stroke-width="1" stroke-linecap="square" stroke-linejoin="bevel" transform="matrix(0.75,0,0,0.75,30,22.5)"
font-family="Sans" font-size="10" font-weight="400" font-style="normal" 
>
</g>

<g fill="none" stroke="#000000" stroke-opacity="1" stroke-width="1" stroke-linecap="square" stroke-linejoin="bevel" transform="matrix(0.75,0,0,0.75,0,0)"
font-family="Sans" font-size="10" font-weight="400" font-style="normal" 
>
</g>

<g fill="none" stroke="#000000" stroke-opacity="1" stroke-width="1" stroke-linecap="square" stroke-linejoin="bevel" transform="matrix(0.75,0,0,0.75,30,37.5)"
font-family="Sans" font-size="10" font-weight="400" font-style="normal" 
>
<text fill="#000000" fill-opacity="1" stroke="none" xml:space="preserve" x="4" y="16" font-family="Sans Serif" font-size="9" font-weight="400" font-style="normal" 
 >T2</text>
</g>

<g fill="none" stroke="#000000" stroke-opacity="1" stroke-width="1" stroke-linecap="square" stroke-linejoin="bevel" transform="matrix(0.75,0,0,0.75,30,37.5)"
font-family="Sans" font-size="10" font-weight="400" font-style="normal" 
>
</g>

<g fill="none" stroke="#000000" stroke-opacity="1" stroke-width="1" stroke-linecap="square" stroke-linejoin="bevel" transform="matrix(0.75,0,0,0.75,0,0)"
font-family="Sans" font-size="10" font-weight="400" font-style="normal" 
>
</g>

<g fill="none" stroke="#000000" stroke-opacity="1" stroke-width="1" stroke-linecap="square" stroke-linejoin="bevel" transform="matrix(0.75,0,0,0.75,30,52.5)"
font-family="Sans" font-size="10" font-weight="400" font-style="normal" 
>
<text fill="#000000" fill-opacity="1" stroke="none" xml:space="preserve" x="4" y="16" font-family="Sans Serif" font-size="9" font-weight="400" font-style="normal" 
 >T3</text>
</g>

<g fill="none" stroke="#000000" stroke-opacity="1" stroke-width="1" stroke-linecap="square" stroke-linejoin="bevel" transform="matrix(0.75,0,0,0.75,30,52.5)"
font-family="Sans" font-size="10" font-weight="400" font-style="normal" 
>
</g>

<g fill="none" stroke="#000000" stroke-opacity="1" stroke-width="1" stroke-linecap="square" stroke-linejoin="bevel" transform="matrix(0.75,0,0,0.75,0,0)"
font-family="Sans" font-size="10" font-weight="400" font-style="normal" 
>
</g>

<g fill="none" stroke="#000000" stroke-opacity="1" stroke-width="1" stroke-linecap="square" stroke-linejoin="bevel" transform="matrix(0.75,0,0,0.75,30,67.5)"
font-family="Sans" font-size="10" font-weight="400" font-style="normal" 
>
<text fill="#000000" fill-opacity="1" stroke="none" xml:space="preserve" x="4" y="16" font-family="Sans Serif" font-size="9" font-weight="400" font-style="normal" 
 >TN</text>
</g>

<g fill="none" stroke="#000000" stroke-opacity="1" stroke-width="1" stroke-linecap="square" stroke-linejoin="bevel" transform="matrix(0.75,0,0,0.75,30,67.5)"
font-family="Sans" font-size="10" font-weight="400" font-style="normal" 
>
</g>

<g fill="none" stroke="#000000" stroke-opacity="1" stroke-width="1" stroke-linecap="square" stroke-linejoin="bevel" transform="matrix(0.75,0,0,0.75,0,0)"
font-family="Sans" font-size="10" font-weight="400" font-style="normal" 
>
</g>

<g fill="none" stroke="#000000" stroke-opacity="1" stroke-width="1" stroke-linecap="square" stroke-linejoin="miter" stroke-miterlimit="2" transform="matrix(0.75,0,0,0.75,0,0)"
font-family="Sans" font-size="10" font-weight="400" font-style="normal" 
>
<path vector-effect="none" fill-rule="evenodd" d="M140.25,189 L140.25,180 L140.25,40 L100,40 L91,40"/>
</g>

<g fill="#000000" fill-opacity="1" stroke="#000000" stroke-opacity="1" stroke-width="1" stroke-linecap="square" stroke-linejoin="miter" stroke-miterlimit="2" transform="matrix(0.75,0,0,0.75,0,0)"
font-family="Sans" font-size="10" font-weight="400" font-style="normal" 
>
<path vector-effect="none" fill-rule="evenodd" d="M141.25,40 C141.25,40.5523 140.802,41 140.25,41 C139.698,41 139.25,40.5523 139.25,40 C139.25,39.4477 139.698,39 140.25,39 C140.802,39 141.25,39.4477 141.25,40 "/>
<path vector-effect="none" fill-rule="evenodd" d="M141.25,40 C141.25,40.5523 140.802,41 140.25,41 C139.698,41 139.25,40.5523 139.25,40 C139.25,39.4477 139.698,39 140.25,39 C140.802,39 141.25,39.4477 141.25,40 "/>
<path vector-effect="none" fill-rule="evenodd" d="M141.25,40 C141.25,40.5523 140.802,41 140.25,41 C139.698,41 139.25,40.5523 139.25,40 C139.25,39.4477 139.698,39 140.25,39 C140.802,39 141.25,39.4477 141.25,40 "/>
<path vector-effect="none" fill-rule="evenodd" d="M141.25,40 C141.25,40.5523 140.802,41 140.25,41 C139.698,41 139.25,40.5523 139.25,40 C139.25,39.4477 139.698,39 140.25,39 C140.802,39 141.25,39.4477 141.25,40 "/>
<path vector-effect="none" fill-rule="evenodd" d="M141.25,40 C141.25,40.5523 140.802,41 140.25,41 C139.698,41 139.25,40.5523 139.25,40 C139.25,39.4477 139.698,39 140.25,39 C140.802,39 141.25,39.4477 141.25,40 "/>
<path vector-effect="none" fill-rule="evenodd" d="M141.25,40 C141.25,40.5523 140.802,41 140.25,41 C139.698,41 139.25,40.5523 139.25,40 C139.25,39.4477 139.698,39 140.25,39 C140.802,39 141.25,39.4477 141.25,40 "/>
</g>

<g fill="none" stroke="#000000" stroke-opacity="1" stroke-width="1" stroke-linecap="square" stroke-linejoin="bevel" transform="matrix(0.75,0,0,0.75,105.188,82.5)"
font-family="Sans" font-size="10" font-weight="400" font-style="normal" 
>
</g>

<g fill="none" stroke="#000000" stroke-opacity="1" stroke-width="1" stroke-linecap="square" stroke-linejoin="bevel" transform="matrix(0.75,0,0,0.75,105.188,82.5)"
font-family="Sans" font-size="10" font-weight="400" font-style="normal" 
>
</g>

<g fill="none" stroke="#000000" stroke-opacity="1" stroke-width="1" stroke-linecap="square" stroke-linejoin="bevel" transform="matrix(0.75,0,0,0.75,0,0)"
font-family="Sans" font-size="10" font-weight="400" font-style="normal" 
>
</g>

<g fill="none" stroke="#000000" stroke-opacity="1" stroke-width="1" stroke-linecap="square" stroke-linejoin="miter" stroke-miterlimit="2" transform="matrix(0.75,0,0,0.75,0,0)"
font-family="Sans" font-size="10" font-weight="400" font-style="normal" 
>
<path vector-effect="none" fill-rule="evenodd" d="M290,189 L290,180 L290,60 L100,60 L91,60"/>
</g>

<g fill="none" stroke="#000000" stroke-opacity="1" stroke-width="1" stroke-linecap="square" stroke-linejoin="miter" stroke-miterlimit="2" transform="matrix(0.75,0,0,0.75,0,0)"
font-family="Sans" font-size="10" font-weight="400" font-style="normal" 
>
<path vector-effect="none" fill-rule="evenodd" d="M150,189 L150,180 L150,100 L100,100 L91,100"/>
</g>

<g fill="#000000" fill-opacity="1" stroke="#000000" stroke-opacity="1" stroke-width="1" stroke-linecap="square" stroke-linejoin="miter" stroke-miterlimit="2" transform="matrix(0.75,0,0,0.75,0,0)"
font-family="Sans" font-size="10" font-weight="400" font-style="normal" 
>
<path vector-effect="none" fill-rule="evenodd" d="M151,100 C151,100.552 150.552,101 150,101 C149.448,101 149,100.552 149,100 C149,99.4477 149.448,99 150,99 C150.552,99 151,99.4477 151,100 "/>
<path vector-effect="none" fill-rule="evenodd" d="M151,100 C151,100.552 150.552,101 150,101 C149.448,101 149,100.552 149,100 C149,99.4477 149.448,99 150,99 C150.552,99 151,99.4477 151,100 "/>
</g>

<g fill="none" stroke="#000000" stroke-opacity="1" stroke-width="1" stroke-linecap="square" stroke-linejoin="miter" stroke-miterlimit="2" transform="matrix(0.75,0,0,0.75,0,0)"
font-family="Sans" font-size="10" font-weight="400" font-style="normal" 
>
<path vector-effect="none" fill-rule="evenodd" d="M280.25,189 L280.25,180 L280.25,40 L100,40 L91,40"/>
</g>

<g fill="#000000" fill-opacity="1" stroke="#000000" stroke-opacity="1" stroke-width="1" stroke-linecap="square" stroke-linejoin="miter" stroke-miterlimit="2" transform="matrix(0.75,0,0,0.75,0,0)"
font-family="Sans" font-size="10" font-weight="400" font-style="normal" 
>
<path vector-effect="none" fill-rule="evenodd" d="M281.25,40 C281.25,40.5523 280.802,41 280.25,41 C279.698,41 279.25,40.5523 279.25,40 C279.25,39.4477 279.698,39 280.25,39 C280.802,39 281.25,39.4477 281.25,40 "/>
<path vector-effect="none" fill-rule="evenodd" d="M281.25,40 C281.25,40.5523 280.802,41 280.25,41 C279.698,41 279.25,40.5523 279.25,40 C279.25,39.4477 279.698,39 280.25,39 C280.802,39 281.25,39.4477 281.25,40 "/>
<path vector-effect="none" fill-rule="evenodd" d="M281.25,40 C281.25,40.5523 280.802,41 280.25,41 C279.698,41 279.25,40.5523 279.25,40 C279.25,39.4477 279.698,39 280.25,39 C280.802,39 281.25,39.4477 281.25,40 "/>
<path vector-effect="none" fill-rule="evenodd" d="M281.25,40 C281.25,40.5523 280.802,41 280.25,41 C279.698,41 279.25,40.5523 279.25,40 C279.25,39.4477 279.698,39 280.25,39 C280.802,39 281.25,39.4477 281.25,40 "/>
<path vector-effect="none" fill-rule="evenodd" d="M281.25,40 C281.25,40.5523 280.802,41 280.25,41 C279.698,41 279.25,40.5523 279.25,40 C279.25,39.4477 279.698,39 280.25,39 C280.802,39 281.25,39.4477 281.25,40 "/>
<path vector-effect="none" fill-rule="evenodd" d="M281.25,40 C281.25,40.5523 280.802,41 280.25,41 C279.698,41 279.25,40.5523 279.25,40 C279.25,39.4477 279.698,39 280.25,39 C280.802,39 281.25,39.4477 281.25,40 "/>
</g>

<g fill="none" stroke="#000000" stroke-opacity="1" stroke-width="1" stroke-linecap="square" stroke-linejoin="miter" stroke-miterlimit="2" transform="matrix(0.75,0,0,0.75,0,0)"
font-family="Sans" font-size="10" font-weight="400" font-style="normal" 
>
<path vector-effect="none" fill-rule="evenodd" d="M400.25,189 L400.25,180 L400.25,40 L100,40 L91,40"/>
</g>

<g fill="none" stroke="#000000" stroke-opacity="1" stroke-width="1" stroke-linecap="square" stroke-linejoin="miter" stroke-miterlimit="2" transform="matrix(0.75,0,0,0.75,0,0)"
font-family="Sans" font-size="10" font-weight="400" font-style="normal" 
>
<path vector-effect="none" fill-rule="evenodd" d="M410,189 L410,180 L410,100 L100,100 L91,100"/>
</g>

<g fill="none" stroke="#000000" stroke-opacity="1" stroke-width="1" stroke-linecap="square" stroke-linejoin="miter" stroke-miterlimit="2" transform="matrix(0.75,0,0,0.75,0,0)"
font-family="Sans" font-size="10" font-weight="400" font-style="normal" 
>
<path vector-effect="none" fill-rule="evenodd" d="M390,230 L381,230 L380,230 L380,250 L380,259"/>
</g>

<g fill="none" stroke="#000000" stroke-opacity="1" stroke-width="1" stroke-linecap="square" stroke-linejoin="miter" stroke-miterlimit="2" transform="matrix(0.75,0,0,0.75,105,157.5)"
font-family="Sans" font-size="10" font-weight="400" font-style="normal" 
>
<polyline fill="none" vector-effect="none" points="-6,20 -10,20 " />
</g>

<g fill="none" stroke="#000000" stroke-opacity="1" stroke-width="1" stroke-linecap="square" stroke-linejoin="bevel" transform="matrix(0.75,0,0,0.75,105,157.5)"
font-family="Sans Serif" font-size="18" font-weight="400" font-style="normal" 
>
<text fill="#000000" fill-opacity="1" stroke="none" xml:space="preserve" x="-5.14062" y="16" font-family="Sans Serif" font-size="18" font-weight="400" font-style="normal" 
 >M</text>
</g>

<g fill="none" stroke="#000000" stroke-opacity="1" stroke-width="1" stroke-linecap="square" stroke-linejoin="bevel" transform="matrix(0.75,0,0,0.75,105,157.5)"
font-family="Sans" font-size="10" font-weight="400" font-style="normal" 
>
<path vector-effect="none" fill-rule="evenodd" d="M20.75,10 C20.75,18.2843 14.0343,25 5.75,25 C-2.53427,25 -9.25,18.2843 -9.25,10 C-9.25,1.71573 -2.53427,-5 5.75,-5 C14.0343,-5 20.75,1.71573 20.75,10 "/>
</g>

<g fill="none" stroke="#000000" stroke-opacity="1" stroke-width="1" stroke-linecap="square" stroke-linejoin="miter" stroke-miterlimit="2" transform="matrix(0.75,0,0,0.75,105,157.5)"
font-family="Sans" font-size="10" font-weight="400" font-style="normal" 
>
<polyline fill="none" vector-effect="none" points="10,-16 10,-4.25 " />
</g>

<g fill="none" stroke="#000000" stroke-opacity="1" stroke-width="1" stroke-linecap="square" stroke-linejoin="miter" stroke-miterlimit="2" transform="matrix(0.75,0,0,0.75,105,157.5)"
font-family="Sans" font-size="10" font-weight="400" font-style="normal" 
>
<polyline fill="none" vector-effect="none" points="0.25,-18 0.25,-4 " />
</g>

<g fill="none" stroke="#000000" stroke-opacity="1" stroke-width="1" stroke-linecap="square" stroke-linejoin="bevel" transform="matrix(0.75,0,0,0.75,123,159.712)"
font-family="Sans" font-size="10" font-weight="400" font-style="normal" 
>
<text fill="#000000" fill-opacity="1" stroke="none" xml:space="preserve" x="4" y="16" font-family="Sans Serif" font-size="9" font-weight="400" font-style="normal" 
 >Ventilador</text>
<text fill="#000000" fill-opacity="1" stroke="none" xml:space="preserve" x="4" y="31" font-family="Sans Serif" font-size="9" font-weight="400" font-style="normal" 
 >Regenerador</text>
<text fill="#000000" fill-opacity="1" stroke="none" xml:space="preserve" x="4" y="46" font-family="Sans Serif" font-size="9" font-weight="400" font-style="normal" 
 >Usillo</text>
<text fill="#000000" fill-opacity="1" stroke="none" xml:space="preserve" x="4" y="61" font-family="Sans Serif" font-size="9" font-weight="400" font-style="normal" 
 >110V</text>
</g>

<g fill="none" stroke="#000000" stroke-opacity="1" stroke-width="1" stroke-linecap="square" stroke-linejoin="bevel" transform="matrix(0.75,0,0,0.75,123,159.712)"
font-family="Sans" font-size="10" font-weight="400" font-style="normal" 
>
</g>

<g fill="none" stroke="#000000" stroke-opacity="1" stroke-width="1" stroke-linecap="square" stroke-linejoin="bevel" transform="matrix(0.75,0,0,0.75,0,0)"
font-family="Sans" font-size="10" font-weight="400" font-style="normal" 
>
</g>

<g fill="none" stroke="#000000" stroke-opacity="1" stroke-width="1" stroke-linecap="square" stroke-linejoin="miter" stroke-miterlimit="2" transform="matrix(0.75,0,0,0.75,210,157.5)"
font-family="Sans" font-size="10" font-weight="400" font-style="normal" 
>
<polyline fill="none" vector-effect="none" points="-6,20 -10,20 " />
</g>

<g fill="none" stroke="#000000" stroke-opacity="1" stroke-width="1" stroke-linecap="square" stroke-linejoin="bevel" transform="matrix(0.75,0,0,0.75,210,157.5)"
font-family="Sans Serif" font-size="18" font-weight="400" font-style="normal" 
>
<text fill="#000000" fill-opacity="1" stroke="none" xml:space="preserve" x="-5.14062" y="16" font-family="Sans Serif" font-size="18" font-weight="400" font-style="normal" 
 >M</text>
</g>

<g fill="none" stroke="#000000" stroke-opacity="1" stroke-width="1" stroke-linecap="square" stroke-linejoin="bevel" transform="matrix(0.75,0,0,0.75,210,157.5)"
font-family="Sans" font-size="10" font-weight="400" font-style="normal" 
>
<path vector-effect="none" fill-rule="evenodd" d="M20.75,10 C20.75,18.2843 14.0343,25 5.75,25 C-2.53427,25 -9.25,18.2843 -9.25,10 C-9.25,1.71573 -2.53427,-5 5.75,-5 C14.0343,-5 20.75,1.71573 20.75,10 "/>
</g>

<g fill="none" stroke="#000000" stroke-opacity="1" stroke-width="1" stroke-linecap="square" stroke-linejoin="miter" stroke-miterlimit="2" transform="matrix(0.75,0,0,0.75,210,157.5)"
font-family="Sans" font-size="10" font-weight="400" font-style="normal" 
>
<polyline fill="none" vector-effect="none" points="10,-16 10,-4.25 " />
</g>

<g fill="none" stroke="#000000" stroke-opacity="1" stroke-width="1" stroke-linecap="square" stroke-linejoin="miter" stroke-miterlimit="2" transform="matrix(0.75,0,0,0.75,210,157.5)"
font-family="Sans" font-size="10" font-weight="400" font-style="normal" 
>
<polyline fill="none" vector-effect="none" points="0.25,-18 0.25,-4 " />
</g>

<g fill="none" stroke="#000000" stroke-opacity="1" stroke-width="1" stroke-linecap="square" stroke-linejoin="bevel" transform="matrix(0.75,0,0,0.75,228,159.712)"
font-family="Sans" font-size="10" font-weight="400" font-style="normal" 
>
<text fill="#000000" fill-opacity="1" stroke="none" xml:space="preserve" x="4" y="16" font-family="Sans Serif" font-size="9" font-weight="400" font-style="normal" 
 >Ventilador</text>
<text fill="#000000" fill-opacity="1" stroke="none" xml:space="preserve" x="4" y="31" font-family="Sans Serif" font-size="9" font-weight="400" font-style="normal" 
 >Usillo</text>
<text fill="#000000" fill-opacity="1" stroke="none" xml:space="preserve" x="4" y="46" font-family="Sans Serif" font-size="9" font-weight="400" font-style="normal" 
 >220V</text>
</g>

<g fill="none" stroke="#000000" stroke-opacity="1" stroke-width="1" stroke-linecap="square" stroke-linejoin="bevel" transform="matrix(0.75,0,0,0.75,228,159.712)"
font-family="Sans" font-size="10" font-weight="400" font-style="normal" 
>
</g>

<g fill="none" stroke="#000000" stroke-opacity="1" stroke-width="1" stroke-linecap="square" stroke-linejoin="bevel" transform="matrix(0.75,0,0,0.75,0,0)"
font-family="Sans" font-size="10" font-weight="400" font-style="normal" 
>
</g>

<g fill="none" stroke="#000000" stroke-opacity="1" stroke-width="1" stroke-linecap="square" stroke-linejoin="miter" stroke-miterlimit="2" transform="matrix(0.75,0,0,0.75,300,157.5)"
font-family="Sans" font-size="10" font-weight="400" font-style="normal" 
>
<polyline fill="none" vector-effect="none" points="-6,20 -10,20 " />
</g>

<g fill="none" stroke="#000000" stroke-opacity="1" stroke-width="1" stroke-linecap="square" stroke-linejoin="bevel" transform="matrix(0.75,0,0,0.75,300,157.5)"
font-family="Sans Serif" font-size="18" font-weight="400" font-style="normal" 
>
<text fill="#000000" fill-opacity="1" stroke="none" xml:space="preserve" x="-5.14062" y="16" font-family="Sans Serif" font-size="18" font-weight="400" font-style="normal" 
 >M</text>
</g>

<g fill="none" stroke="#000000" stroke-opacity="1" stroke-width="1" stroke-linecap="square" stroke-linejoin="bevel" transform="matrix(0.75,0,0,0.75,300,157.5)"
font-family="Sans" font-size="10" font-weight="400" font-style="normal" 
>
<path vector-effect="none" fill-rule="evenodd" d="M20.75,10 C20.75,18.2843 14.0343,25 5.75,25 C-2.53427,25 -9.25,18.2843 -9.25,10 C-9.25,1.71573 -2.53427,-5 5.75,-5 C14.0343,-5 20.75,1.71573 20.75,10 "/>
</g>

<g fill="none" stroke="#000000" stroke-opacity="1" stroke-width="1" stroke-linecap="square" stroke-linejoin="miter" stroke-miterlimit="2" transform="matrix(0.75,0,0,0.75,300,157.5)"
font-family="Sans" font-size="10" font-weight="400" font-style="normal" 
>
<polyline fill="none" vector-effect="none" points="10,-16 10,-4.25 " />
</g>

<g fill="none" stroke="#000000" stroke-opacity="1" stroke-width="1" stroke-linecap="square" stroke-linejoin="miter" stroke-miterlimit="2" transform="matrix(0.75,0,0,0.75,300,157.5)"
font-family="Sans" font-size="10" font-weight="400" font-style="normal" 
>
<polyline fill="none" vector-effect="none" points="0.25,-18 0.25,-4 " />
</g>

<g fill="none" stroke="#000000" stroke-opacity="1" stroke-width="1" stroke-linecap="square" stroke-linejoin="bevel" transform="matrix(0.75,0,0,0.75,318,159.712)"
font-family="Sans" font-size="10" font-weight="400" font-style="normal" 
>
<text fill="#000000" fill-opacity="1" stroke="none" xml:space="preserve" x="4" y="16" font-family="Sans Serif" font-size="9" font-weight="400" font-style="normal" 
 >Ventilador</text>
<text fill="#000000" fill-opacity="1" stroke="none" xml:space="preserve" x="4" y="31" font-family="Sans Serif" font-size="9" font-weight="400" font-style="normal" 
 >Panel</text>
<text fill="#000000" fill-opacity="1" stroke="none" xml:space="preserve" x="4" y="46" font-family="Sans Serif" font-size="9" font-weight="400" font-style="normal" 
 >Trasero</text>
<text fill="#000000" fill-opacity="1" stroke="none" xml:space="preserve" x="4" y="61" font-family="Sans Serif" font-size="9" font-weight="400" font-style="normal" 
 >110V</text>
</g>

<g fill="none" stroke="#000000" stroke-opacity="1" stroke-width="1" stroke-linecap="square" stroke-linejoin="bevel" transform="matrix(0.75,0,0,0.75,318,159.712)"
font-family="Sans" font-size="10" font-weight="400" font-style="normal" 
>
</g>

<g fill="none" stroke="#000000" stroke-opacity="1" stroke-width="1" stroke-linecap="square" stroke-linejoin="bevel" transform="matrix(0.75,0,0,0.75,0,0)"
font-family="Sans" font-size="10" font-weight="400" font-style="normal" 
>
</g>

<g fill="none" stroke="#000000" stroke-opacity="1" stroke-width="1" stroke-linecap="square" stroke-linejoin="bevel" transform="matrix(0,-0.75,0.75,0,52.5,30)"
font-family="Sans" font-size="10" font-weight="400" font-style="normal" 
>
<polyline fill="none" vector-effect="none" points="-4,-1 0,5 4,-1 " />
</g>

<g fill="none" stroke="#000000" stroke-opacity="1" stroke-width="1" stroke-linecap="square" stroke-linejoin="miter" stroke-miterlimit="2" transform="matrix(0,-0.75,0.75,0,52.5,30)"
font-family="Sans" font-size="10" font-weight="400" font-style="normal" 
>
<polyline fill="none" vector-effect="none" points="0,5.5 0,20 " />
</g>

<g fill="none" stroke="#000000" stroke-opacity="1" stroke-width="1" stroke-linecap="square" stroke-linejoin="bevel" transform="matrix(0,-0.75,0.75,0,52.5,45)"
font-family="Sans" font-size="10" font-weight="400" font-style="normal" 
>
<polyline fill="none" vector-effect="none" points="-4,-1 0,5 4,-1 " />
</g>

<g fill="none" stroke="#000000" stroke-opacity="1" stroke-width="1" stroke-linecap="square" stroke-linejoin="miter" stroke-miterlimit="2" transform="matrix(0,-0.75,0.75,0,52.5,45)"
font-family="Sans" font-size="10" font-weight="400" font-style="normal" 
>
<polyline fill="none" vector-effect="none" points="0,5.5 0,20 " />
</g>

<g fill="none" stroke="#000000" stroke-opacity="1" stroke-width="1" stroke-linecap="square" stroke-linejoin="bevel" transform="matrix(0,-0.75,0.75,0,52.5,60)"
font-family="Sans" font-size="10" font-weight="400" font-style="normal" 
>
<polyline fill="none" vector-effect="none" points="-4,-1 0,5 4,-1 " />
</g>

<g fill="none" stroke="#000000" stroke-opacity="1" stroke-width="1" stroke-linecap="square" stroke-linejoin="miter" stroke-miterlimit="2" transform="matrix(0,-0.75,0.75,0,52.5,60)"
font-family="Sans" font-size="10" font-weight="400" font-style="normal" 
>
<polyline fill="none" vector-effect="none" points="0,5.5 0,20 " />
</g>

<g fill="none" stroke="#000000" stroke-opacity="1" stroke-width="1" stroke-linecap="square" stroke-linejoin="miter" stroke-miterlimit="2" transform="matrix(0.75,0,0,0.75,285,202.5)"
font-family="Sans" font-size="10" font-weight="400" font-style="normal" 
>
<polyline fill="none" vector-effect="none" points="-3,4 3,4 " />
</g>

<g fill="none" stroke="#000000" stroke-opacity="1" stroke-width="1" stroke-linecap="square" stroke-linejoin="miter" stroke-miterlimit="2" transform="matrix(0.75,0,0,0.75,285,202.5)"
font-family="Sans" font-size="10" font-weight="400" font-style="normal" 
>
<polyline fill="none" vector-effect="none" points="-5,2 5,2 " />
</g>

<g fill="none" stroke="#000000" stroke-opacity="1" stroke-width="1" stroke-linecap="square" stroke-linejoin="miter" stroke-miterlimit="2" transform="matrix(0.75,0,0,0.75,285,202.5)"
font-family="Sans" font-size="10" font-weight="400" font-style="normal" 
>
<polyline fill="none" vector-effect="none" points="-7,0 7,0 " />
</g>

<g fill="none" stroke="#000000" stroke-opacity="1" stroke-width="1" stroke-linecap="square" stroke-linejoin="miter" stroke-miterlimit="2" transform="matrix(0.75,0,0,0.75,285,202.5)"
font-family="Sans" font-size="10" font-weight="400" font-style="normal" 
>
<polyline fill="none" vector-effect="none" points="0,-10 0,0 " />
</g>

<g fill="none" stroke="#000000" stroke-opacity="1" stroke-width="1" stroke-linecap="square" stroke-linejoin="bevel" transform="matrix(0,-0.75,0.75,0,52.5,75)"
font-family="Sans" font-size="10" font-weight="400" font-style="normal" 
>
<polyline fill="none" vector-effect="none" points="-4,-1 0,5 4,-1 " />
</g>

<g fill="none" stroke="#000000" stroke-opacity="1" stroke-width="1" stroke-linecap="square" stroke-linejoin="miter" stroke-miterlimit="2" transform="matrix(0,-0.75,0.75,0,52.5,75)"
font-family="Sans" font-size="10" font-weight="400" font-style="normal" 
>
<polyline fill="none" vector-effect="none" points="0,5.5 0,20 " />
</g>

<g fill="none" stroke="#000000" stroke-opacity="1" stroke-width="1" stroke-linecap="square" stroke-linejoin="bevel" transform="matrix(0.75,0,0,0.75,0,0)"
font-family="Sans" font-size="10" font-weight="400" font-style="normal" 
>
</g>
</g>
</svg>
